<?xml version="1.0" encoding="utf-8"?>
<!-- Generator: Adobe Illustrator 21.0.0, SVG Export Plug-In . SVG Version: 6.00 Build 0)  -->
<svg version="1.1" id="Calque_1" xmlns="http://www.w3.org/2000/svg" xmlns:xlink="http://www.w3.org/1999/xlink" x="0px" y="0px"
	 width="500px" height="500px" viewBox="0 0 500 500" style="enable-background:new 0 0 500 500;" xml:space="preserve">
<path d="M95,145.8l97.9-98c4.1-4.1,9.6-6.2,15-6.2c12.8,0,21.3,10.5,21.3,21.4c0,5.2-1.9,10.5-6.2,14.8L155,145.8H95z M345,145.8
	H405l-97.9-98c-4.1-4.1-9.6-6.2-15-6.2c-12.8,0-21.3,10.5-21.3,21.4c0,5.2,1.9,10.5,6.2,14.8L345,145.8z M422.1,229.2l-0.3,0.9
	l-75,186.6H153.2L78.2,230l-0.3-0.8H422.1z M500,187.5H0v41.7h13.4c11.1,0,21.3,6.3,26.2,16.3L125,458.3h250l85.5-212.8
	c4.9-10,15-16.4,26.2-16.4H500C500,229.2,500,187.5,500,187.5z"/>
</svg>
