<?xml version="1.0" encoding="utf-8"?>
<!-- Generator: Adobe Illustrator 21.0.0, SVG Export Plug-In . SVG Version: 6.00 Build 0)  -->
<svg version="1.1" id="Calque_1" xmlns="http://www.w3.org/2000/svg" xmlns:xlink="http://www.w3.org/1999/xlink" x="0px" y="0px"
	 width="500px" height="500px" viewBox="0 0 500 500" style="enable-background:new 0 0 500 500;" xml:space="preserve">
<path d="M395.8,0H104.2C46.6,0,0,46.6,0,104.2v291.7C0,453.4,46.6,500,104.2,500h291.7c57.5,0,104.2-46.6,104.2-104.2V104.2
	C500,46.6,453.4,0,395.8,0z M333.3,145.8h-40.1c-12.8,0-22.4,5.3-22.4,18.5v23.1h62.5l-5,62.5h-57.5v166.7h-62.5V250h-41.7v-62.5
	h41.7v-40.1c0-42.1,22.2-64.1,72.1-64.1h52.9V145.8z"/>
</svg>
