<?xml version="1.0" encoding="utf-8"?>
<!-- Generator: Adobe Illustrator 21.0.0, SVG Export Plug-In . SVG Version: 6.00 Build 0)  -->
<svg version="1.1" id="Calque_1" xmlns="http://www.w3.org/2000/svg" xmlns:xlink="http://www.w3.org/1999/xlink" x="0px" y="0px"
	 width="500px" height="500px" viewBox="0 0 500 500" style="enable-background:new 0 0 500 500;" xml:space="preserve">
<path d="M250,45.1c66.8,0,74.7,0.3,101,1.5c67.8,3.1,99.4,35.2,102.5,102.5c1.2,26.4,1.4,34.3,1.4,101c0,66.8-0.3,74.7-1.4,101
	c-3.1,67.2-34.7,99.4-102.5,102.5c-26.4,1.2-34.3,1.5-101,1.5c-66.8,0-74.7-0.3-101-1.5C81.1,450.4,49.6,418.1,46.5,351
	c-1.2-26.4-1.5-34.3-1.5-101c0-66.7,0.3-74.6,1.5-101C49.6,81.8,81.2,49.6,149,46.5C175.4,45.3,183.2,45.1,250,45.1z M250,0
	c-67.9,0-76.4,0.3-103.1,1.5C56.1,5.7,5.7,56,1.5,146.9C0.3,173.6,0,182.1,0,250s0.3,76.4,1.5,103.1C5.7,443.9,56,494.3,146.9,498.5
	c26.7,1.2,35.2,1.5,103.1,1.5s76.4-0.3,103.1-1.5c90.7-4.2,141.3-54.5,145.4-145.4c1.2-26.7,1.5-35.2,1.5-103.1s-0.3-76.4-1.5-103.1
	C494.4,56.2,444,5.7,353.1,1.5C326.4,0.3,317.9,0,250,0z M250,121.6c-70.9,0-128.4,57.5-128.4,128.4S179.1,378.4,250,378.4
	S378.4,320.9,378.4,250C378.4,179.1,320.9,121.6,250,121.6z M250,333.3c-46,0-83.3-37.3-83.3-83.3c0-46,37.3-83.3,83.3-83.3
	s83.3,37.3,83.3,83.3C333.3,296,296,333.3,250,333.3z M383.5,86.6c-16.6,0-30,13.4-30,30s13.4,30,30,30c16.6,0,30-13.4,30-30
	S400,86.6,383.5,86.6z"/>
</svg>
