<?xml version="1.0" encoding="utf-8"?>
<!-- Generator: Adobe Illustrator 21.0.0, SVG Export Plug-In . SVG Version: 6.00 Build 0)  -->
<svg version="1.1" id="Calque_1" xmlns="http://www.w3.org/2000/svg" xmlns:xlink="http://www.w3.org/1999/xlink" x="0px" y="0px"
	 width="500px" height="500px" viewBox="0 0 500 500" style="enable-background:new 0 0 500 500;" xml:space="preserve">
<path d="M135.5,432.3c0,37.4-30.3,67.7-67.7,67.7C30.3,500,0,469.7,0,432.3s30.3-67.7,67.8-67.7C105.1,364.7,135.5,395,135.5,432.3z
	 M0,170.4v100.2c126,1.3,228.3,103.5,229.6,229.4H330C328.7,318.5,181.7,171.7,0,170.4z M0,100.3c220.4,1,399,179,399.6,399.7H500
	C499.4,224.4,275.9,1,0,0C0,0,0,100.2,0,100.3z"/>
</svg>
