<?xml version="1.0" encoding="utf-8"?>
<!-- Generator: Adobe Illustrator 21.0.0, SVG Export Plug-In . SVG Version: 6.00 Build 0)  -->
<svg version="1.1" id="Calque_1" xmlns="http://www.w3.org/2000/svg" xmlns:xlink="http://www.w3.org/1999/xlink" x="0px" y="0px"
	 width="500px" height="500px" viewBox="0 0 500 500" style="enable-background:new 0 0 500 500;" xml:space="preserve">
<path d="M498.1,435L365.7,302.6c19.4-30.5,30.6-66.7,30.6-105.4C396.3,88.5,307.8,0,199,0S1.8,88.5,1.8,197.3
	C1.8,306,90.2,394.5,199,394.5c36.8,0,71.3-10.1,100.8-27.8L433.1,500C433.1,500,498.1,435,498.1,435z M75.3,197.3
	c0-68.2,55.5-123.7,123.7-123.7c68.2,0,123.8,55.5,123.8,123.7c0,68.2-55.5,123.7-123.8,123.7C130.8,321,75.3,265.5,75.3,197.3z"/>
</svg>
