<?xml version="1.0" encoding="utf-8"?>
<!-- Generator: Adobe Illustrator 21.0.0, SVG Export Plug-In . SVG Version: 6.00 Build 0)  -->
<svg version="1.1" id="Calque_1" xmlns="http://www.w3.org/2000/svg" xmlns:xlink="http://www.w3.org/1999/xlink" x="0px" y="0px"
	 width="500px" height="500px" viewBox="0 0 500 500" style="enable-background:new 0 0 500 500;" xml:space="preserve">
<path d="M395.8,0H104.2C46.6,0,0,46.6,0,104.2v291.7C0,453.4,46.6,500,104.2,500h291.7c57.5,0,104.2-46.6,104.2-104.2V104.2
	C500,46.6,453.4,0,395.8,0z M392.9,192.4c4.4,96.2-67.4,203.4-194.4,203.4c-38.6,0-74.6-11.3-104.8-30.7
	c36.3,4.3,72.5-5.8,101.3-28.3c-29.9-0.6-55.2-20.3-63.9-47.5c10.7,2,21.3,1.4,30.9-1.2c-32.9-6.6-55.6-36.2-54.9-67.9
	c9.2,5.1,19.8,8.2,31,8.6c-30.4-20.4-39.1-60.6-21.2-91.3c33.7,41.4,84.1,68.6,141,71.5c-10-42.8,22.5-84,66.6-84
	c19.6,0,37.4,8.3,49.9,21.6c15.6-3.1,30.2-8.8,43.5-16.6c-5.1,16-16,29.4-30.1,37.8c13.8-1.7,27-5.3,39.3-10.8
	C417.9,170.8,406.3,182.8,392.9,192.4z"/>
</svg>
