<?xml version="1.0" encoding="utf-8"?>
<!-- Generator: Adobe Illustrator 21.0.0, SVG Export Plug-In . SVG Version: 6.00 Build 0)  -->
<svg version="1.1" id="Calque_1" xmlns="http://www.w3.org/2000/svg" xmlns:xlink="http://www.w3.org/1999/xlink" x="0px" y="0px"
	 width="500px" height="500px" viewBox="0 0 500 500" style="enable-background:new 0 0 500 500;" xml:space="preserve">
<path d="M193.3,281.7h-19.6v104.7h-18.9V281.7h-19.6v-17.8h58.1L193.3,281.7L193.3,281.7z M305.7,317.5v50.1
	c0,11.2-4.2,19.9-15.3,19.9c-6.2,0-11.3-2.3-16-8.1v6.9h-16.9V263.9h16.9v39.4c3.8-4.6,8.9-8.4,15-8.4
	C301.6,294.9,305.7,305.3,305.7,317.5z M288.4,318.5c0-3-0.6-5.4-1.8-6.9c-2-2.7-5.8-3-8.8-1.5l-3.5,2.8v56.3l4,3.2
	c2.8,1.4,6.8,1.5,8.6-0.9c1-1.3,1.4-3.4,1.4-6.2L288.4,318.5L288.4,318.5z M239.5,196.5c4.8,0,7.4-3.8,7.4-9v-44.1
	c0-5.3-2.3-9-7.7-9c-4.9,0-7.4,3.9-7.4,9v44.1C231.8,192.5,234.7,196.5,239.5,196.5z M224.3,364.6c-2.1,2.6-6.6,6.8-9.9,6.8
	c-3.6,0-4.5-2.5-4.5-6.1V296h-16.8v75.5c0,18.3,12.4,18.4,21.5,13.2c3.3-1.9,6.6-4.7,9.7-8.4v10h16.8V296h-16.8
	C224.2,296,224.2,364.6,224.3,364.6z M500,104.2v291.7c0,57.5-46.6,104.2-104.2,104.2H104.2C46.6,500,0,453.4,0,395.8V104.2
	C0,46.6,46.6,0,104.2,0h291.7C453.4,0,500,46.6,500,104.2z M279.9,196.4c0,9.4,2.9,16.9,12.3,16.9c5.3,0,12.7-2.8,20.4-11.9V212
	h17.6v-94.9h-17.6v72c-2.2,2.7-6.9,7.1-10.4,7.1c-3.8,0-4.7-2.6-4.7-6.4v-72.7h-17.6C279.9,117.1,279.9,196.4,279.9,196.4z
	 M213.7,141.8v46.5c0,16.7,8.7,25.4,25.8,25.4c14.2,0,25.4-9.5,25.4-25.4v-46.5c0-14.9-11.1-25.5-25.4-25.5
	C224,116.3,213.7,126.6,213.7,141.8z M148,83.3l23.6,76.5V212h19.9v-52.2l23.1-76.5h-20.2l-12.7,51.4L168,83.3
	C168,83.3,148,83.3,148,83.3z M388.9,326.4c-0.3-62-4.8-85.8-44-88.4c-36.1-2.5-153.7-2.5-189.8,0c-39.1,2.7-43.7,26.3-44,88.4
	c0.3,62,4.9,85.8,44,88.4c36.1,2.5,153.6,2.5,189.8,0C384,412.1,388.6,388.5,388.9,326.4z M367.8,320.3v23h-32.1v17
	c0,6.8,0.6,12.6,7.3,12.6c7.1,0,7.5-4.8,7.5-12.6v-6.3h17.3v6.8c0,17.4-7.5,28-25.2,28c-16.1,0-24.3-11.7-24.3-28v-40.6
	c0-15.7,10.4-26.6,25.5-26.6C360,293.7,367.8,304,367.8,320.3z M350.5,320.1c0-6.1-1.3-10.6-7.4-10.6c-6.2,0-7.5,4.4-7.5,10.6v9.1
	h14.8V320.1z"/>
</svg>
